<svg width="32" height="32" viewBox="0 0 32 32" fill="none" xmlns="http://www.w3.org/2000/svg">
<path d="M15.9616 23.8429C14.2718 21.7223 13.2777 19.8635 12.9464 18.273C12.615 16.9808 12.7476 15.9536 13.3109 15.1915C13.9073 14.2969 14.8019 13.8661 15.9616 13.8661C17.1213 13.8661 18.016 14.2969 18.6124 15.1915C19.1757 15.9536 19.3082 16.9808 18.9769 18.273C18.6124 19.8966 17.6183 21.7522 15.9616 23.8429ZM27.9629 25.2677C27.731 26.825 26.6707 28.1173 25.2128 28.7469C22.3963 29.9728 19.6097 28.0179 17.224 25.3671C21.1704 20.4268 21.8993 16.5832 20.2061 14.0948C19.2121 12.67 17.7873 11.9742 15.9616 11.9742C12.2837 11.9742 10.2592 15.0888 11.0544 18.7038C11.5183 20.6587 12.7443 22.882 14.6992 25.3671C13.4732 26.7256 12.3135 27.6865 11.2863 28.283C10.4911 28.7137 9.72901 28.9788 9.00005 29.0451C5.65346 29.5421 3.03252 26.2949 4.22537 22.945C4.39104 22.5142 4.72238 21.719 5.28567 20.493L5.3188 20.4268C7.1412 16.4473 9.36453 11.941 11.9159 6.93439L11.9822 6.76872L12.7111 5.37707C13.2744 4.3499 13.5063 3.88602 14.401 3.32273C14.8317 3.05765 15.3619 2.92512 15.9583 2.92512C17.1511 2.92512 18.0789 3.62094 18.4765 4.18423C18.6753 4.48244 18.9073 4.88005 19.2055 5.37707L19.9013 6.73559L20.0007 6.93439C22.5521 11.941 24.7754 16.4473 26.5978 20.4268L26.6309 20.4599L27.2936 21.9841L27.6912 22.945C27.9961 23.7104 28.0623 24.4725 27.9629 25.2677ZM29.4871 22.2823C29.2552 21.5533 28.8576 20.6918 28.3606 19.6647V19.6315C26.008 14.6249 23.8178 10.1186 21.7303 6.0729L21.5978 5.87409C20.1067 2.82571 19.0464 1 15.9616 1C12.9132 1 11.6177 3.12061 10.2923 5.87409L10.1929 6.0729C8.10542 10.1186 5.91523 14.6249 3.56268 19.6315V19.6978L2.86685 21.222C2.60177 21.8516 2.46924 22.1829 2.4361 22.2823C0.746241 26.9245 4.22537 31 8.43676 31C8.4699 31 8.60244 31 8.76811 30.9669H9.23199C11.4189 30.7018 13.6753 29.3101 15.9616 26.8217C18.2479 29.3068 20.5044 30.7018 22.6912 30.9669H23.1551C23.3208 31 23.4533 31 23.4865 31C27.6979 31.0033 31.177 26.9245 29.4871 22.2823Z" fill="white"/>
</svg>
