<svg width="32" height="32" viewBox="0 0 32 32" fill="none" xmlns="http://www.w3.org/2000/svg">
<path d="M0.0581818 23.483C0.155142 23.3285 0.310284 23.3188 0.523636 23.4541C5.3721 26.2548 10.6473 27.6551 16.3491 27.6551C20.1503 27.6551 23.903 26.9501 27.6073 25.5401C27.7042 25.5015 27.8448 25.4435 28.0291 25.3663C28.2133 25.289 28.3442 25.2311 28.4218 25.1924C28.7127 25.0765 28.9406 25.1345 29.1055 25.3663C29.2703 25.5981 29.217 25.8105 28.9455 26.0037C28.5964 26.2548 28.1503 26.5445 27.6073 26.8729C25.9394 27.8579 24.0776 28.6209 22.0218 29.1617C19.9661 29.7026 17.9588 29.973 16 29.973C12.9745 29.973 10.1139 29.4466 7.41818 28.3939C4.72241 27.3413 2.30787 25.8588 0.174545 23.9466C0.0581818 23.85 0 23.7534 0 23.6569C0 23.5989 0.0193745 23.541 0.0581818 23.483ZM8.81455 15.2257C8.81455 13.893 9.14423 12.7534 9.80364 11.8069C10.463 10.8605 11.3648 10.1458 12.5091 9.66292C13.5564 9.21868 14.8461 8.89997 16.3782 8.70681C16.9018 8.64886 17.7551 8.57159 18.9382 8.47503V7.98249C18.9382 6.7463 18.8024 5.91576 18.5309 5.49081C18.1236 4.91135 17.4836 4.62162 16.6109 4.62162H16.3782C15.7382 4.67957 15.1855 4.88238 14.72 5.23005C14.2545 5.57773 13.9539 6.06062 13.8182 6.6787C13.7406 7.065 13.5466 7.28714 13.2364 7.34508L9.89091 6.93946C9.56119 6.86219 9.39636 6.68835 9.39636 6.41795C9.39636 6.36 9.40605 6.29241 9.42545 6.21514C9.75514 4.49608 10.5648 3.22127 11.8545 2.3907C13.1442 1.56013 14.6521 1.09657 16.3782 1L17.1055 1C19.3164 1 21.0424 1.56981 22.2836 2.70941C22.4783 2.90344 22.6582 3.11165 22.8218 3.33232C22.9866 3.55446 23.1176 3.75243 23.2145 3.92627C23.3115 4.10011 23.3988 4.35122 23.4764 4.67957C23.5539 5.00792 23.6121 5.23489 23.6509 5.36043C23.6897 5.48597 23.7188 5.75641 23.7382 6.17168C23.7576 6.58695 23.7673 6.83322 23.7673 6.91049V13.9219C23.7673 14.4241 23.84 14.8829 23.9855 15.2982C24.1309 15.7134 24.2715 16.0128 24.4073 16.1963C24.543 16.3798 24.7661 16.6744 25.0764 17.08C25.1927 17.2538 25.2509 17.4083 25.2509 17.5436C25.2509 17.6981 25.1733 17.8333 25.0182 17.9492C23.4085 19.3399 22.5357 20.0932 22.4 20.2091C22.1673 20.3829 21.8861 20.4022 21.5564 20.267C21.2848 20.0352 21.0473 19.8131 20.8436 19.6006C20.64 19.3882 20.4945 19.2336 20.4073 19.1371C20.32 19.0405 20.1794 18.8522 19.9855 18.5721C19.7915 18.292 19.6557 18.1037 19.5782 18.0071C18.4921 19.1854 17.4255 19.9194 16.3782 20.2091C15.7188 20.4022 14.9042 20.4988 13.9345 20.4988C12.4412 20.4988 11.2145 20.0401 10.2545 19.1226C9.29455 18.2051 8.81455 16.9062 8.81455 15.2257ZM13.8182 14.6463C13.8182 15.3996 14.0073 16.0032 14.3855 16.4571C14.7636 16.911 15.2727 17.1379 15.9127 17.1379C15.9709 17.1379 16.0533 17.1283 16.16 17.109C16.2666 17.0896 16.3394 17.08 16.3782 17.08C17.1927 16.8675 17.823 16.346 18.2691 15.5155C18.4824 15.1485 18.6424 14.7477 18.7491 14.3131C18.8557 13.8785 18.9139 13.526 18.9236 13.2556C18.9333 12.9852 18.9382 12.5409 18.9382 11.9228V11.1985C17.8133 11.1985 16.96 11.2758 16.3782 11.4303C14.6715 11.9132 13.8182 12.9852 13.8182 14.6463ZM26.0364 23.9756C26.0751 23.8983 26.1333 23.8211 26.2109 23.7438C26.6957 23.4154 27.1612 23.1933 27.6073 23.0774C28.3442 22.8842 29.0618 22.778 29.76 22.7587C29.9539 22.7394 30.1382 22.7491 30.3127 22.7877C31.1855 22.8649 31.7091 23.0098 31.8836 23.2223C31.9612 23.3382 32 23.512 32 23.7438V23.9466C32 24.6226 31.8157 25.4194 31.4473 26.3369C31.0788 27.2544 30.5648 27.9932 29.9055 28.5533C29.8085 28.6306 29.7212 28.6692 29.6436 28.6692C29.6048 28.6692 29.5661 28.6595 29.5273 28.6402C29.4109 28.5823 29.3818 28.476 29.44 28.3215C30.1576 26.6411 30.5164 25.4725 30.5164 24.8158C30.5164 24.6033 30.4776 24.4488 30.4 24.3522C30.2061 24.1204 29.663 24.0045 28.7709 24.0045C28.4412 24.0045 28.0533 24.0239 27.6073 24.0625C27.1224 24.1204 26.6764 24.1784 26.2691 24.2363C26.1527 24.2363 26.0751 24.217 26.0364 24.1784C25.9976 24.1398 25.9879 24.1011 26.0073 24.0625C26.0073 24.0432 26.017 24.0142 26.0364 23.9756Z" fill="white"/>
</svg>
