<svg width="32" height="32" viewBox="0 0 32 32" fill="none" xmlns="http://www.w3.org/2000/svg">
<path fill-rule="evenodd" clip-rule="evenodd" d="M8.34888 11.0523C8.45225 11.9747 8.91655 16.1178 5.4468 16.8632C1.97462 17.6122 0.683038 13.5921 1.0645 11.7086C1.0645 11.7086 1.47558 7.64087 4.29165 7.39001C6.52835 7.19434 8.17671 9.64331 8.34814 11.0457L8.34888 11.0523ZM15.3773 4.94238C15.3773 7.67543 13.8255 9.8879 11.9056 9.8879C9.98439 9.8879 8.42892 7.67543 8.42892 4.94238C8.42892 2.20888 9.98483 0 11.9056 0C13.8255 0 15.3773 2.20888 15.3773 4.94238ZM24.7289 5.73088C24.3995 7.80827 22.753 10.5498 20.1828 10.2133C17.6154 9.88431 17.0351 7.56189 17.2851 5.23274C17.4902 3.32858 19.7664 0.409733 21.5897 0.828891C23.4051 1.24311 25.0655 3.65618 24.7289 5.73088ZM26.4747 9.71467C29.538 9.71467 30.3606 12.7098 30.3606 13.7034C30.3606 13.7788 30.363 13.8724 30.3658 13.9813C30.3995 15.3178 30.4912 18.942 26.9701 19.0201C23.1582 19.1026 22.9994 16.4441 22.9994 14.5381C22.9994 12.5411 23.4051 9.71467 26.4747 9.71467ZM20.1828 16.0299C22.5017 19.3526 26.4747 22.4258 26.4747 22.4258C26.4747 22.4258 29.451 24.7545 27.5482 29.2387C25.6476 33.7265 18.6924 31.3942 18.6924 31.3942C18.6924 31.3942 16.1272 30.5675 13.1456 31.2313C10.1702 31.8968 7.60452 31.6459 7.60452 31.6459C7.60452 31.6459 4.12336 31.7294 3.13067 27.3283C2.2891 23.5856 5.38538 21.2816 6.54037 20.4221C6.7447 20.27 6.88828 20.1632 6.93854 20.1016C7.02117 19.9972 7.22729 19.8209 7.51325 19.5762C8.37341 18.8401 9.95604 17.4858 11.0736 15.6138C12.5671 13.1258 17.0342 11.1306 20.1828 16.0299ZM12.5227 18.1414V21.0979H10.1136C10.1136 21.0979 7.70593 21.2976 6.86313 24.0266C6.58832 25.73 7.05405 26.7788 7.19471 27.0955C7.20451 27.1176 7.21273 27.1361 7.21901 27.151C7.3164 27.3799 8.09457 28.7128 10.0485 29.1041H14.5691V18.1737L12.5227 18.1414ZM12.4863 27.3099H10.6652C10.6652 27.3099 9.39647 27.2439 9.01008 25.7831C8.81082 25.136 9.0397 24.3884 9.14022 24.0944C9.23222 23.8 9.65811 23.1197 10.5364 22.8576H12.4859L12.4863 27.3099ZM15.6772 21.363V27.1181C15.6772 27.1181 15.7715 28.5502 17.791 29.0721H22.9932V21.3621H20.7479V27.15H18.6055C18.6055 27.15 17.9207 27.0504 17.7919 26.5002V21.3289L15.6772 21.363Z" fill="white"/>
</svg>
